<svg width="197" height="47" viewBox="0 0 197 47" fill="none" xmlns="http://www.w3.org/2000/svg">
<path d="M195.865 41.1952C195.865 43.6466 193.826 45.6323 191.304 45.6323H6.06334C3.54264 45.6323 1.49658 43.6466 1.49658 41.1952V5.81103C1.49658 3.36079 3.54264 1.36816 6.06334 1.36816H191.303C193.826 1.36816 195.864 3.36079 195.864 5.81103L195.865 41.1952Z" fill="black"/>
<path d="M190.823 1.42144C193.57 1.42144 195.805 3.58776 195.805 6.25001V40.75C195.805 43.4123 193.57 45.5786 190.823 45.5786H6.53884C3.79237 45.5786 1.55752 43.4123 1.55752 40.75V6.25001C1.55752 3.58776 3.79237 1.42144 6.53884 1.42144H190.823ZM190.823 0.500007H6.53884C3.27777 0.500007 0.606934 3.08895 0.606934 6.25001V40.75C0.606934 43.9111 3.27777 46.5 6.53884 46.5H190.823C194.084 46.5 196.755 43.9111 196.755 40.75V6.25001C196.755 3.08895 194.084 0.500007 190.823 0.500007Z" fill="#A6A6A6"/>
<path d="M36.3504 23.2515C36.316 19.545 39.4813 17.7418 39.626 17.6579C37.8334 15.1244 35.0549 14.7783 34.0785 14.7507C31.7449 14.5126 29.4813 16.1042 28.2925 16.1042C27.08 16.1042 25.2494 14.7737 23.2765 14.8128C20.7376 14.8507 18.3625 16.2756 17.0599 18.4882C14.3715 22.9996 16.3765 29.6294 18.9521 33.276C20.2405 35.062 21.7461 37.0561 23.7166 36.9859C25.6445 36.9089 26.3646 35.7945 28.6911 35.7945C30.9963 35.7945 31.6725 36.9859 33.6822 36.9411C35.7513 36.9089 37.0539 35.1471 38.2973 33.345C39.7862 31.298 40.3841 29.2821 40.4078 29.1786C40.3592 29.1625 36.3896 27.6939 36.3504 23.2515Z" fill="white"/>
<path d="M32.554 12.3518C33.5909 11.0948 34.3003 9.38476 34.1034 7.64941C32.6026 7.71381 30.7258 8.65566 29.645 9.88501C28.6888 10.9683 27.8346 12.7439 28.0552 14.4137C29.7411 14.5356 31.472 13.5892 32.554 12.3518Z" fill="white"/>
<path d="M64.2504 36.7295H61.5561L60.0802 32.2341H54.9503L53.5445 36.7295H50.9214L56.0038 21.4253H59.143L64.2504 36.7295ZM59.6354 30.3481L58.3007 26.3519C58.1595 25.9436 57.8949 24.9822 57.5046 23.4688H57.4572C57.3017 24.1197 57.0514 25.0811 56.7074 26.3519L55.3964 30.3481H59.6354Z" fill="white"/>
<path d="M77.3208 31.0763C77.3208 32.9531 76.7976 34.4366 75.7512 35.5257C74.8139 36.4951 73.6501 36.9793 72.2608 36.9793C70.7613 36.9793 69.684 36.4572 69.028 35.413H68.9805V41.2262H66.4511V29.3272C66.4511 28.1473 66.4191 26.9363 66.3574 25.6943H68.5819L68.7231 27.4435H68.7705C69.614 26.1256 70.8941 25.4678 72.612 25.4678C73.955 25.4678 75.0761 25.9818 75.973 27.0111C76.8723 28.0415 77.3208 29.3962 77.3208 31.0763ZM74.7439 31.166C74.7439 30.0919 74.4948 29.2064 73.9942 28.5095C73.4472 27.7827 72.7129 27.4193 71.7922 27.4193C71.1682 27.4193 70.6011 27.6217 70.0945 28.0208C69.5867 28.4233 69.2546 28.9488 69.0991 29.5997C69.0208 29.9033 68.9817 30.1517 68.9817 30.3472V32.1872C68.9817 32.9899 69.2356 33.6673 69.7434 34.2204C70.2511 34.7736 70.9107 35.0496 71.7222 35.0496C72.6749 35.0496 73.4164 34.6931 73.9467 33.9824C74.4782 33.2705 74.7439 32.3321 74.7439 31.166Z" fill="white"/>
<path d="M90.4148 31.0763C90.4148 32.9531 89.8916 34.4366 88.844 35.5257C87.908 36.4951 86.7441 36.9793 85.3549 36.9793C83.8553 36.9793 82.7781 36.4572 82.1232 35.413H82.0757V41.2262H79.5464V29.3272C79.5464 28.1473 79.5143 26.9363 79.4526 25.6943H81.6771L81.8183 27.4435H81.8657C82.7081 26.1256 83.9882 25.4678 85.7072 25.4678C87.049 25.4678 88.1702 25.9818 89.0694 27.0111C89.9652 28.0415 90.4148 29.3962 90.4148 31.0763ZM87.838 31.166C87.838 30.0919 87.5876 29.2064 87.087 28.5095C86.5401 27.7827 85.8081 27.4193 84.8863 27.4193C84.261 27.4193 83.6951 27.6217 83.1874 28.0208C82.6796 28.4233 82.3486 28.9488 82.1932 29.5997C82.1161 29.9033 82.0757 30.1517 82.0757 30.3472V32.1872C82.0757 32.9899 82.3296 33.6673 82.835 34.2204C83.3428 34.7724 84.0024 35.0496 84.8163 35.0496C85.7689 35.0496 86.5104 34.6931 87.0407 33.9824C87.5722 33.2705 87.838 32.3321 87.838 31.166Z" fill="white"/>
<path d="M105.055 32.4378C105.055 33.7396 104.589 34.7988 103.652 35.6164C102.624 36.51 101.192 36.9562 99.3518 36.9562C97.6529 36.9562 96.291 36.6388 95.26 36.0028L95.8461 33.9593C96.9565 34.6102 98.175 34.9368 99.5025 34.9368C100.455 34.9368 101.197 34.7275 101.729 34.3112C102.26 33.8949 102.524 33.336 102.524 32.6391C102.524 32.0181 102.306 31.4948 101.868 31.0705C101.433 30.6461 100.705 30.2517 99.69 29.8871C96.9257 28.8878 95.5447 27.4238 95.5447 25.4987C95.5447 24.2406 96.0288 23.2091 96.9981 22.4064C97.9638 21.6025 99.2522 21.2012 100.863 21.2012C102.3 21.2012 103.493 21.4438 104.446 21.928L103.814 23.9267C102.924 23.4575 101.918 23.2229 100.792 23.2229C99.9023 23.2229 99.2071 23.4356 98.7088 23.8588C98.2877 24.2372 98.0765 24.6983 98.0765 25.2446C98.0765 25.8495 98.3173 26.3497 98.8014 26.743C99.2225 27.1064 99.9877 27.4997 101.098 27.9241C102.457 28.4542 103.454 29.0741 104.096 29.7848C104.736 30.4932 105.055 31.3798 105.055 32.4378Z" fill="white"/>
<path d="M113.418 27.534H110.63V32.8918C110.63 34.2546 111.121 34.9354 112.105 34.9354C112.557 34.9354 112.932 34.8974 113.229 34.8215L113.299 36.6834C112.801 36.8639 112.145 36.9548 111.332 36.9548C110.333 36.9548 109.552 36.6592 108.989 36.0693C108.428 35.4782 108.145 34.4869 108.145 33.0942V27.5317H106.484V25.6917H108.145V23.6711L110.63 22.9443V25.6917H113.418V27.534Z" fill="white"/>
<path d="M125.997 31.121C125.997 32.8173 125.496 34.2099 124.497 35.2989C123.45 36.4202 122.059 36.9791 120.326 36.9791C118.655 36.9791 117.325 36.442 116.334 35.3679C115.342 34.2938 114.846 32.938 114.846 31.3038C114.846 29.5938 115.356 28.1931 116.38 27.1041C117.401 26.0139 118.78 25.4688 120.513 25.4688C122.184 25.4688 123.528 26.0058 124.542 27.0811C125.513 28.1241 125.997 29.4708 125.997 31.121ZM123.372 31.2003C123.372 30.1826 123.148 29.3098 122.694 28.5818C122.164 27.7009 121.405 27.2616 120.423 27.2616C119.406 27.2616 118.634 27.7021 118.104 28.5818C117.649 29.3109 117.425 30.1975 117.425 31.2463C117.425 32.2641 117.649 33.1369 118.104 33.8637C118.651 34.7446 119.415 35.1839 120.401 35.1839C121.366 35.1839 122.124 34.7354 122.671 33.8407C123.138 33.099 123.372 32.2169 123.372 31.2003Z" fill="white"/>
<path d="M134.218 27.8506C133.968 27.8057 133.701 27.7827 133.421 27.7827C132.531 27.7827 131.843 28.1082 131.359 28.7602C130.938 29.3352 130.727 30.062 130.727 30.9395V36.7297H128.199L128.222 29.1696C128.222 27.8977 128.19 26.7397 128.127 25.6955H130.331L130.423 27.8069H130.493C130.76 27.0812 131.181 26.497 131.758 26.0589C132.321 25.6644 132.93 25.4678 133.586 25.4678C133.82 25.4678 134.031 25.4839 134.218 25.5126V27.8506Z" fill="white"/>
<path d="M145.531 30.6896C145.531 31.1289 145.501 31.4992 145.438 31.8017H137.85C137.88 32.8919 138.246 33.7256 138.951 34.3006C139.59 34.8147 140.417 35.0723 141.433 35.0723C142.556 35.0723 143.581 34.8986 144.503 34.5502L144.899 36.2522C143.822 36.7076 142.55 36.9341 141.083 36.9341C139.317 36.9341 137.932 36.4304 136.923 35.4242C135.917 34.4179 135.413 33.0667 135.413 31.3716C135.413 29.7075 135.882 28.3218 136.82 27.2166C137.802 26.0367 139.13 25.4468 140.8 25.4468C142.441 25.4468 143.683 26.0367 144.527 27.2166C145.195 28.1539 145.531 29.3131 145.531 30.6896ZM143.119 30.0537C143.135 29.3269 142.97 28.699 142.627 28.1688C142.19 27.4869 141.517 27.1465 140.612 27.1465C139.785 27.1465 139.112 27.4788 138.599 28.1458C138.177 28.676 137.927 29.3119 137.85 30.0525H143.119V30.0537Z" fill="white"/>
<path d="M54.6025 12.6049V11.585H55.6883C56.6269 11.585 57.2325 11.0696 57.2325 10.321V10.3101C57.2325 9.61576 56.6869 9.19804 55.7429 9.19804C54.8153 9.19804 54.2423 9.59406 54.1496 10.2667L54.1441 10.3427H52.9709L52.9764 10.2667C53.0582 8.94307 54.1332 8.13477 55.7811 8.13477C57.3635 8.13477 58.4439 8.9702 58.4439 10.1799V10.1908C58.4439 11.0588 57.8546 11.7857 56.9815 11.9864V12.0298C58.0347 12.16 58.684 12.9032 58.684 13.9557V13.9665C58.684 15.2576 57.4399 16.2233 55.7538 16.2233C54.0131 16.2233 52.8563 15.3444 52.7745 14.0533L52.769 13.9882H53.964L53.9695 14.0316C54.0568 14.7531 54.717 15.16 55.7538 15.16C56.7687 15.16 57.4344 14.6663 57.4344 13.9123V13.9014C57.4344 13.0877 56.8015 12.6049 55.7211 12.6049H54.6025Z" fill="white"/>
<path d="M62.191 16.1961C61.0452 16.1961 60.2758 15.4963 60.2758 14.471V14.4602C60.2758 13.4674 61.0506 12.8598 62.4093 12.7785L63.9754 12.6862V12.2577C63.9754 11.6284 63.5607 11.2487 62.8295 11.2487C62.1474 11.2487 61.7272 11.5687 61.629 12.0244L61.6181 12.0732H60.505L60.5104 12.0136C60.5923 11.0317 61.449 10.2776 62.8622 10.2776C64.2646 10.2776 65.154 11.0154 65.154 12.16V16.0931H63.9754V15.1925H63.9481C63.6152 15.8056 62.955 16.1961 62.191 16.1961ZM61.4653 14.4439C61.4653 14.943 61.88 15.2576 62.513 15.2576C63.3424 15.2576 63.9754 14.6989 63.9754 13.9557V13.5108L62.5676 13.5976C61.8582 13.641 61.4653 13.9502 61.4653 14.4331V14.4439Z" fill="white"/>
<path d="M67.1823 16.0931V10.3861H69.7906C70.9092 10.3861 71.5858 10.9449 71.5858 11.8508V11.8617C71.5858 12.453 71.1602 12.99 70.609 13.0931V13.1365C71.3511 13.2342 71.8422 13.7441 71.8422 14.4439V14.4548C71.8422 15.4529 71.0674 16.0931 69.8233 16.0931H67.1823ZM68.35 12.7405H69.425C70.0907 12.7405 70.4181 12.4964 70.4181 11.9919V11.981C70.4181 11.509 70.1125 11.2541 69.545 11.2541H68.35V12.7405ZM68.35 15.2251H69.605C70.2707 15.2251 70.6309 14.9484 70.6309 14.4059V14.3951C70.6309 13.8472 70.2434 13.5922 69.4686 13.5922H68.35V15.2251Z" fill="white"/>
<path d="M75.3602 16.1961C74.2143 16.1961 73.4449 15.4963 73.4449 14.471V14.4602C73.4449 13.4674 74.2198 12.8598 75.5785 12.7785L77.1445 12.6862V12.2577C77.1445 11.6284 76.7298 11.2487 75.9986 11.2487C75.3165 11.2487 74.8964 11.5687 74.7982 12.0244L74.7873 12.0732H73.6741L73.6796 12.0136C73.7614 11.0317 74.6181 10.2776 76.0314 10.2776C77.4337 10.2776 78.3231 11.0154 78.3231 12.16V16.0931H77.1445V15.1925H77.1172C76.7844 15.8056 76.1241 16.1961 75.3602 16.1961ZM74.6345 14.4439C74.6345 14.943 75.0492 15.2576 75.6821 15.2576C76.5115 15.2576 77.1445 14.6989 77.1445 13.9557V13.5108L75.7367 13.5976C75.0273 13.641 74.6345 13.9502 74.6345 14.4331V14.4439Z" fill="white"/>
<path d="M84.1165 16.0931V13.6139H81.5301V16.0931H80.3514V10.3861H81.5301V12.6862H84.1165V10.3861H85.2951V16.0931H84.1165Z" fill="white"/>
<path d="M91.7105 10.3861V11.3192H89.9153V16.0931H88.7312V11.3192H86.936V10.3861H91.7105Z" fill="white"/>
<path d="M94.8575 16.1961C93.7116 16.1961 92.9422 15.4963 92.9422 14.471V14.4602C92.9422 13.4674 93.717 12.8598 95.0757 12.7785L96.6418 12.6862V12.2577C96.6418 11.6284 96.2271 11.2487 95.4959 11.2487C94.8138 11.2487 94.3937 11.5687 94.2954 12.0244L94.2845 12.0732H93.1714L93.1768 12.0136C93.2587 11.0317 94.1154 10.2776 95.5286 10.2776C96.931 10.2776 97.8204 11.0154 97.8204 12.16V16.0931H96.6418V15.1925H96.6145C96.2816 15.8056 95.6214 16.1961 94.8575 16.1961ZM94.1317 14.4439C94.1317 14.943 94.5464 15.2576 95.1794 15.2576C96.0088 15.2576 96.6418 14.6989 96.6418 13.9557V13.5108L95.234 13.5976C94.5246 13.641 94.1317 13.9502 94.1317 14.4331V14.4439Z" fill="white"/>
<path d="M100.771 16.0931H99.3194L101.764 13.0768L99.4067 10.3861H100.804L102.823 12.7568H102.975V10.3861H104.132V12.7568H104.285L106.304 10.3861H107.695L105.338 13.0714L107.788 16.0931H106.331L104.285 13.5325H104.132V16.0931H102.975V13.5325H102.823L100.771 16.0931Z" fill="white"/>
<path d="M109.309 16.0931V10.3861H110.477V14.3788H110.531L113.167 10.3861H114.329V16.0931H113.156V12.0841H113.107L110.471 16.0931H109.309Z" fill="white"/>
<path d="M120.744 10.3861V11.3192H118.949V16.0931H117.765V11.3192H115.97V10.3861H120.744Z" fill="white"/>
<path d="M122.391 16.0931V10.3861H123.558V14.3788H123.613L126.249 10.3861H127.411V16.0931H126.238V12.0841H126.189L123.553 16.0931H122.391Z" fill="white"/>
<path d="M134.583 16.207C133.241 16.207 132.319 15.5669 132.204 14.5578L132.199 14.509H133.355L133.372 14.5633C133.503 15.0244 133.928 15.2739 134.578 15.2739C135.303 15.2739 135.751 14.9538 135.751 14.4331V14.4222C135.751 13.8743 135.369 13.6139 134.572 13.6139H133.743V12.7622H134.567C135.26 12.7622 135.614 12.5018 135.614 11.9919V11.981C135.614 11.4928 135.243 11.2053 134.621 11.2053C134.005 11.2053 133.574 11.4711 133.486 11.9051L133.481 11.943H132.357L132.362 11.8996C132.499 10.8852 133.345 10.2776 134.638 10.2776C135.958 10.2776 136.766 10.8798 136.766 11.8562V11.8671C136.766 12.4801 136.367 12.9629 135.751 13.104V13.1474C136.509 13.2993 136.924 13.7549 136.924 14.4222V14.4331C136.924 15.4963 135.991 16.207 134.583 16.207Z" fill="white"/>
</svg>
