<svg width="40" height="40" viewBox="0 0 40 40" fill="none" xmlns="http://www.w3.org/2000/svg">
<path d="M22.6516 19.9998L30.0735 12.578C30.4257 12.2263 30.6238 11.7492 30.6243 11.2515C30.6247 10.7538 30.4274 10.2763 30.0758 9.92405C29.7242 9.57181 29.247 9.37368 28.7493 9.37324C28.2516 9.3728 27.7741 9.57009 27.4219 9.92171L20 17.3436L12.5781 9.92171C12.2259 9.56947 11.7482 9.37158 11.25 9.37158C10.7519 9.37158 10.2741 9.56947 9.92189 9.92171C9.56965 10.274 9.37177 10.7517 9.37177 11.2498C9.37177 11.748 9.56965 12.2257 9.92189 12.578L17.3438 19.9998L9.92189 27.4217C9.56965 27.7739 9.37177 28.2517 9.37177 28.7498C9.37177 29.248 9.56965 29.7257 9.92189 30.078C10.2741 30.4302 10.7519 30.6281 11.25 30.6281C11.7482 30.6281 12.2259 30.4302 12.5781 30.078L20 22.6561L27.4219 30.078C27.7741 30.4302 28.2519 30.6281 28.75 30.6281C29.2482 30.6281 29.7259 30.4302 30.0781 30.078C30.4304 29.7257 30.6283 29.248 30.6283 28.7498C30.6283 28.2517 30.4304 27.7739 30.0781 27.4217L22.6516 19.9998Z" fill="#5C5C5C"/>
</svg>
