<svg width="200" height="47" viewBox="0 0 200 47" fill="none" xmlns="http://www.w3.org/2000/svg">
<path d="M193.378 46.5H5.90903C2.66054 46.5 0 43.9111 0 40.75V6.25C0 3.08894 2.66054 0.500002 5.90903 0.500002H193.378C196.627 0.500002 199.287 3.08894 199.287 6.25V40.75C199.287 43.9111 196.627 46.5 193.378 46.5Z" fill="black"/>
<path d="M194.019 1.42144C196.755 1.42144 198.981 3.58775 198.981 6.25V40.75C198.981 43.4123 196.755 45.5786 194.019 45.5786H5.90903C3.17315 45.5786 0.946921 43.4123 0.946921 40.75V6.25C0.946921 3.58775 3.17315 1.42144 5.90903 1.42144H194.019ZM194.019 0.500002H5.90903C2.66054 0.500002 0 3.08894 0 6.25V40.75C0 43.9111 2.66054 46.5 5.90903 46.5H194.019C197.268 46.5 199.928 43.9111 199.928 40.75V6.25C199.928 3.08894 197.268 0.500002 194.019 0.500002Z" fill="#A6A6A6"/>
<path d="M80.5225 25.5152C77.7467 25.5152 75.4791 27.5708 75.4791 30.407C75.4791 33.2202 77.7467 35.2974 80.5225 35.2974C83.3041 35.2974 85.5717 33.2202 85.5717 30.407C85.5717 27.5708 83.3041 25.5152 80.5225 25.5152ZM80.5225 33.3712C78.9994 33.3712 77.6891 32.1478 77.6891 30.407C77.6891 28.6432 78.9994 27.4415 80.5225 27.4415C82.0455 27.4415 83.3618 28.6432 83.3618 30.407C83.3618 32.1478 82.0455 33.3712 80.5225 33.3712ZM69.5184 25.5152C66.7367 25.5152 64.475 27.5708 64.475 30.407C64.475 33.2202 66.7367 35.2974 69.5184 35.2974C72.2986 35.2974 74.5617 33.2202 74.5617 30.407C74.5617 27.5708 72.2986 25.5152 69.5184 25.5152ZM69.5184 33.3712C67.9939 33.3712 66.6791 32.1478 66.6791 30.407C66.6791 28.6432 67.9939 27.4415 69.5184 27.4415C71.0414 27.4415 72.3518 28.6432 72.3518 30.407C72.3518 32.1478 71.0414 33.3712 69.5184 33.3712ZM56.424 27.0145V29.0932H61.525C61.3757 30.2547 60.9769 31.1085 60.3653 31.7037C59.6208 32.4224 58.4611 33.2202 56.424 33.2202C53.2848 33.2202 50.8267 30.7549 50.8267 27.7002C50.8267 24.6455 53.2848 22.1802 56.424 22.1802C58.1214 22.1802 59.3563 22.8257 60.2678 23.6623L61.7731 22.1975C60.4983 21.013 58.8024 20.103 56.424 20.103C52.1193 20.103 48.5015 23.5113 48.5015 27.7002C48.5015 31.8891 52.1193 35.2974 56.424 35.2974C58.7507 35.2974 60.4983 34.5557 61.8721 33.1642C63.2799 31.7942 63.7187 29.868 63.7187 28.3126C63.7187 27.8296 63.6773 27.3854 63.6035 27.0145H56.424ZM109.969 28.626C109.554 27.532 108.273 25.5152 105.664 25.5152C103.079 25.5152 100.926 27.4975 100.926 30.407C100.926 33.1469 103.057 35.2974 105.912 35.2974C108.221 35.2974 109.553 33.9275 110.102 33.1297L108.388 32.0185C107.816 32.8321 107.038 33.3712 105.912 33.3712C104.794 33.3712 103.992 32.8723 103.478 31.8891L110.201 29.1823L109.969 28.626ZM103.114 30.2547C103.057 28.3687 104.619 27.4027 105.739 27.4027C106.617 27.4027 107.361 27.8296 107.609 28.4405L103.114 30.2547ZM97.6498 34.9998H99.8597V20.6248H97.6498V34.9998ZM94.0305 26.6048H93.9566C93.4603 26.0327 92.5134 25.5152 91.3138 25.5152C88.7966 25.5152 86.495 27.6657 86.495 30.4228C86.495 33.1642 88.7966 35.2974 91.3138 35.2974C92.5134 35.2974 93.4603 34.7756 93.9566 34.1862H94.0305V34.8877C94.0305 36.7579 93.0038 37.7627 91.3478 37.7627C89.9976 37.7627 89.16 36.814 88.8143 36.0162L86.8924 36.7967C87.4464 38.0933 88.9133 39.689 91.3478 39.689C93.9389 39.689 96.1252 38.2055 96.1252 34.5959V25.8128H94.0305V26.6048ZM91.5029 33.3712C89.9799 33.3712 88.705 32.1306 88.705 30.4228C88.705 28.6993 89.9799 27.4415 91.5029 27.4415C93.0038 27.4415 94.1871 28.6993 94.1871 30.4228C94.1871 32.1306 93.0038 33.3712 91.5029 33.3712ZM120.315 20.6248H115.03V34.9998H117.234V29.5532H120.315C122.763 29.5532 125.164 27.8296 125.164 25.0883C125.164 22.3484 122.757 20.6248 120.315 20.6248ZM120.373 27.5536H117.234V22.6244H120.373C122.019 22.6244 122.958 23.9541 122.958 25.0883C122.958 26.2009 122.019 27.5536 120.373 27.5536ZM133.998 25.4879C132.405 25.4879 130.749 26.1722 130.068 27.6887L132.024 28.4865C132.445 27.6887 133.219 27.43 134.038 27.43C135.181 27.43 136.341 28.0984 136.358 29.2786V29.4295C135.959 29.2053 135.106 28.8732 134.055 28.8732C131.949 28.8732 129.802 30.0017 129.802 32.1076C129.802 34.0338 131.528 35.2744 133.467 35.2744C134.95 35.2744 135.769 34.6232 136.283 33.8657H136.358V34.9768H138.487V29.4626C138.487 26.9139 136.531 25.4879 133.998 25.4879ZM133.732 33.3654C133.011 33.3654 132.006 33.0175 132.006 32.1478C132.006 31.0352 133.259 30.6083 134.343 30.6083C135.314 30.6083 135.769 30.8167 136.358 31.0913C136.185 32.4224 135.008 33.3654 133.732 33.3654ZM146.243 25.8027L143.709 32.0343H143.634L141.015 25.8027H138.638L142.573 34.5111L140.328 39.3569H142.631L148.695 25.8027H146.243ZM126.375 34.9998H128.585V20.6248H126.375V34.9998Z" fill="white"/>
<path d="M12.3322 9.16932C11.9851 9.52294 11.7842 10.0735 11.7842 10.7865V36.2188C11.7842 36.9318 11.9851 37.4823 12.3322 37.8359L12.4179 37.9136L27.0634 23.6679V23.3316L12.4179 9.08595L12.3322 9.16932Z" fill="url(#paint0_linear_41_2417)"/>
<path d="M31.9399 28.4189L27.0635 23.668V23.3316L31.9458 18.5807L32.0551 18.6425L37.8371 21.8438C39.4872 22.7523 39.4872 24.2473 37.8371 25.1616L32.0551 28.3571L31.9399 28.4189Z" fill="url(#paint1_linear_41_2417)"/>
<path d="M32.0549 28.3573L27.0632 23.5L12.332 37.8362C12.8801 38.3968 13.7738 38.4644 14.7902 37.9038L32.0549 28.3573Z" fill="url(#paint2_linear_41_2417)"/>
<path d="M32.0549 18.6427L14.7902 9.09625C13.7738 8.54138 12.8801 8.60894 12.332 9.16957L27.0632 23.5L32.0549 18.6427Z" fill="url(#paint3_linear_41_2417)"/>
<path d="M55.8228 11.6851C55.8228 12.2459 55.7516 12.7561 55.6092 13.2156C55.4669 13.6683 55.2533 14.0602 54.9686 14.3913C54.6906 14.7224 54.3414 14.9758 53.9211 15.1515C53.5075 15.3272 53.0262 15.415 52.477 15.415C51.9075 15.415 51.4126 15.3272 50.9923 15.1515C50.5719 14.969 50.2228 14.7156 49.9448 14.3913C49.6669 14.0602 49.4601 13.6649 49.3245 13.2054C49.1889 12.746 49.1211 12.2358 49.1211 11.675C49.1211 10.9317 49.2431 10.283 49.4872 9.72893C49.7313 9.17485 50.1008 8.74239 50.5957 8.43157C51.0974 8.12074 51.7279 7.96533 52.4872 7.96533C53.2126 7.96533 53.8228 8.12074 54.3177 8.43157C54.8126 8.73564 55.1855 9.16809 55.4363 9.72893C55.694 10.283 55.8228 10.9351 55.8228 11.6851ZM50.0872 11.6851C50.0872 12.2932 50.1719 12.8169 50.3414 13.2561C50.5109 13.6953 50.7719 14.0332 51.1245 14.2697C51.4838 14.5062 51.9347 14.6244 52.477 14.6244C53.0262 14.6244 53.4736 14.5062 53.8194 14.2697C54.1719 14.0332 54.433 13.6953 54.6024 13.2561C54.7719 12.8169 54.8567 12.2932 54.8567 11.6851C54.8567 10.7729 54.6669 10.06 54.2872 9.54648C53.9075 9.02619 53.3075 8.76604 52.4872 8.76604C51.938 8.76604 51.4838 8.88429 51.1245 9.12079C50.7719 9.35053 50.5109 9.685 50.3414 10.1242C50.1719 10.5567 50.0872 11.077 50.0872 11.6851Z" fill="white"/>
<path d="M59.4225 15.3136H58.5073V8.87754H56.2395V8.07682H61.6802V8.87754H59.4225V15.3136Z" fill="white"/>
<path d="M64.6971 8.07682C65.6463 8.07682 66.3378 8.26264 66.7717 8.63428C67.2056 9.00592 67.4225 9.52959 67.4225 10.2053C67.4225 10.5026 67.3717 10.7898 67.27 11.0668C67.1751 11.3371 67.0157 11.5804 66.792 11.7966C66.5683 12.0128 66.27 12.1851 65.8971 12.3135C65.5242 12.4351 65.0666 12.4959 64.5242 12.4959H63.6903V15.3136H62.7751V8.07682H64.6971ZM64.6157 8.85726H63.6903V11.7155H64.4225C64.8835 11.7155 65.2666 11.6682 65.5717 11.5736C65.8768 11.4722 66.1039 11.3135 66.253 11.0972C66.4022 10.881 66.4768 10.5972 66.4768 10.2458C66.4768 9.7796 66.3276 9.43161 66.0293 9.20187C65.731 8.97213 65.2598 8.85726 64.6157 8.85726Z" fill="white"/>
<path d="M68.9425 8.07682H69.7968V12.05C69.7968 12.2189 69.7934 12.4047 69.7866 12.6074C69.7866 12.8034 69.7832 12.9993 69.7764 13.1953C69.7697 13.3913 69.7595 13.5669 69.7459 13.7223C69.7392 13.871 69.7324 13.9859 69.7256 14.067H69.7663L73.7629 8.07682H74.7798V15.3136H73.9256V11.381C73.9256 11.1986 73.929 11.0026 73.9358 10.7932C73.9425 10.5769 73.9493 10.3708 73.9561 10.1749C73.9697 9.97218 73.9798 9.79312 73.9866 9.63771C73.9934 9.48229 74.0002 9.36742 74.0069 9.29309H73.9663L69.9595 15.3136H68.9425V8.07682Z" fill="white"/>
<path d="M79.9416 15.3136L77.5518 8.96876H77.5111C77.5247 9.1039 77.5349 9.2762 77.5416 9.48567C77.5552 9.69514 77.5654 9.92488 77.5721 10.1749C77.5789 10.4181 77.5823 10.6682 77.5823 10.9249V15.3136H76.7383V8.07682H78.0908L80.3281 14.0061H80.3688L82.6467 8.07682H83.9891V15.3136H83.084V10.8641C83.084 10.6276 83.0874 10.3945 83.0942 10.1648C83.101 9.92826 83.1111 9.70865 83.1247 9.50594C83.1382 9.29647 83.1484 9.12079 83.1552 8.97889H83.1145L80.6942 15.3136H79.9416Z" fill="white"/>
<path d="M90.5202 15.3136L89.6456 13.0737H86.7677L85.9033 15.3136H84.9778L87.8151 8.04642H88.6389L91.466 15.3136H90.5202ZM88.5575 10.0735C88.5372 10.0195 88.5033 9.9215 88.4558 9.7796C88.4083 9.6377 88.3609 9.49243 88.3134 9.34377C88.2728 9.18836 88.2389 9.07011 88.2117 8.98903C88.1778 9.12417 88.1406 9.26269 88.0999 9.40459C88.066 9.53973 88.0287 9.66473 87.988 9.7796C87.9541 9.89447 87.9236 9.99245 87.8965 10.0735L87.0728 12.2628H89.3711L88.5575 10.0735Z" fill="white"/>
<path d="M94.0425 15.3136H93.1273V8.87754H90.8595V8.07682H96.3001V8.87754H94.0425V15.3136Z" fill="white"/>
<path d="M97.4052 8.07682H98.2594V12.05C98.2594 12.2189 98.256 12.4047 98.2493 12.6074C98.2493 12.8034 98.2459 12.9993 98.2391 13.1953C98.2323 13.3913 98.2221 13.5669 98.2086 13.7223C98.2018 13.871 98.195 13.9859 98.1882 14.067H98.2289L102.226 8.07682H103.242V15.3136H102.388V11.381C102.388 11.1986 102.392 11.0026 102.398 10.7932C102.405 10.5769 102.412 10.3708 102.419 10.1749C102.432 9.97218 102.442 9.79312 102.449 9.63771C102.456 9.48229 102.463 9.36742 102.47 9.29309H102.429L98.4221 15.3136H97.4052V8.07682Z" fill="white"/>
<path d="M109.51 8.07682C110.113 8.07682 110.618 8.13426 111.025 8.24913C111.439 8.364 111.747 8.5532 111.951 8.81672C112.161 9.08025 112.266 9.43161 112.266 9.87082C112.266 10.1546 112.212 10.408 112.103 10.631C112.002 10.8472 111.846 11.0297 111.635 11.1783C111.432 11.3202 111.181 11.4182 110.883 11.4722V11.5229C111.188 11.5702 111.463 11.6581 111.707 11.7865C111.957 11.9148 112.154 12.0973 112.296 12.3338C112.439 12.5703 112.51 12.8777 112.51 13.2561C112.51 13.6953 112.408 14.0703 112.205 14.3812C112.002 14.6852 111.71 14.9183 111.33 15.0805C110.957 15.2359 110.51 15.3136 109.988 15.3136H107.435V8.07682H109.51ZM109.693 11.158C110.317 11.158 110.744 11.0601 110.974 10.8641C111.205 10.6614 111.32 10.3641 111.32 9.97218C111.32 9.57351 111.178 9.28972 110.893 9.12079C110.615 8.94511 110.168 8.85726 109.551 8.85726H108.351V11.158H109.693ZM108.351 11.9182V14.5433H109.815C110.459 14.5433 110.907 14.4183 111.157 14.1683C111.408 13.9183 111.534 13.5906 111.534 13.1852C111.534 12.9284 111.476 12.7054 111.361 12.5162C111.252 12.327 111.066 12.1817 110.802 12.0804C110.544 11.9723 110.191 11.9182 109.744 11.9182H108.351Z" fill="white"/>
<defs>
<linearGradient id="paint0_linear_41_2417" x1="25.7631" y1="36.4836" x2="6.47051" y2="16.6575" gradientUnits="userSpaceOnUse">
<stop stop-color="#00A0FF"/>
<stop offset="0.0066" stop-color="#00A1FF"/>
<stop offset="0.2601" stop-color="#00BEFF"/>
<stop offset="0.5122" stop-color="#00D2FF"/>
<stop offset="0.7604" stop-color="#00DFFF"/>
<stop offset="1" stop-color="#00E3FF"/>
</linearGradient>
<linearGradient id="paint1_linear_41_2417" x1="39.9858" y1="23.4982" x2="11.3898" y2="23.4982" gradientUnits="userSpaceOnUse">
<stop stop-color="#FFE000"/>
<stop offset="0.4087" stop-color="#FFBD00"/>
<stop offset="0.7754" stop-color="#FFA500"/>
<stop offset="1" stop-color="#FF9C00"/>
</linearGradient>
<linearGradient id="paint2_linear_41_2417" x1="29.3406" y1="20.8595" x2="3.17826" y2="-6.02635" gradientUnits="userSpaceOnUse">
<stop stop-color="#FF3A44"/>
<stop offset="1" stop-color="#C31162"/>
</linearGradient>
<linearGradient id="paint3_linear_41_2417" x1="8.62388" y1="46.2974" x2="20.3065" y2="34.2917" gradientUnits="userSpaceOnUse">
<stop stop-color="#32A071"/>
<stop offset="0.0685" stop-color="#2DA771"/>
<stop offset="0.4762" stop-color="#15CF74"/>
<stop offset="0.8009" stop-color="#06E775"/>
<stop offset="1" stop-color="#00F076"/>
</linearGradient>
</defs>
</svg>
