 <svg
              width="73"
              height="63"
              viewBox="0 0 301 261"
              fill="none"
              xmlns="http://www.w3.org/2000/svg"
            >
<path d="M137.5 0.5H162.5L167.267 23.8601C174.223 24.9671 180.959 26.7322 187.41 29.0895L204.5 12L226 25.5L218.962 47.0843C223.187 50.5403 227.148 54.3074 230.81 58.3504C230.27 58.2429 229.677 58.146 229.056 58.0572C226.859 57.7427 223.875 57.4674 220.613 57.2395C219.351 57.1514 218.039 57.0698 216.703 56.9954C199.007 41.1415 175.629 31.5 150 31.5C124.371 31.5 100.993 41.1415 83.2973 56.9954C81.9612 57.0698 80.6489 57.1514 79.3874 57.2395C76.1252 57.4674 73.1414 57.7427 70.9443 58.0572C70.3235 58.146 69.7295 58.2429 69.1896 58.3504C73.063 54.074 77.2711 50.1064 81.7726 46.489L74.0001 25L96.0001 12L112.956 28.9562C119.448 26.6107 126.226 24.8641 133.224 23.7831L137.5 0.5Z" fill="white"/>
<path d="M46.0628 98.5691C44.2233 104.38 42.8577 110.402 42.0113 116.59L18 121L18 146.5L42.5 151V149.624C43.7945 157.359 45.9036 164.818 48.7361 171.91L30.25 187.647L43 209.731L66.3708 201.412C70.9084 206.834 75.9634 211.808 81.4599 216.259L74.0832 236.984L96.1668 249.734L110.356 233.066C117.717 235.942 125.468 238.04 133.507 239.26L137.5 261H163L167.008 239.181C174.761 237.966 182.243 235.934 189.363 233.176L205.147 251.718L227.231 238.968L219.011 215.875C224.628 211.276 229.776 206.127 234.375 200.511L257.468 208.731L270.218 186.647L251.676 170.863C254.692 163.077 256.84 154.859 258 146.327V151L282.5 146.5V121L258 116.5V116.673C257.155 110.456 255.785 104.406 253.937 98.5691C253.479 102.437 250.568 105.554 246.803 106.319C248.89 114.364 250 122.802 250 131.5C250 186.728 205.228 231.5 150 231.5C94.7715 231.5 50 186.728 50 131.5C50 122.802 51.1104 114.364 53.1971 106.319C49.4318 105.554 46.5207 102.437 46.0628 98.5691Z" fill="white"/>
<path d="M161.203 179.664H154.734L151.078 182.617H161.203V185.289H148.406C147.352 186.062 146.859 186.977 146.859 188.102C146.859 190.07 148.336 191.125 151.148 191.125C153.398 191.125 155.297 190.07 156.844 187.82L160.008 189.93C157.898 193.234 154.312 194.852 150.867 194.852C146.086 194.852 142.711 192.531 142.711 188.875C142.711 187.609 143.133 186.344 144.047 185.289H139.969V182.617H146.156L149.883 179.664H139.969V176.992H152.695C153.82 175.938 154.242 175.023 154.242 174.039C154.242 172.281 152.625 171.086 150.375 171.086C148.195 171.086 146.438 172.281 145.102 174.391L141.867 172.211C143.836 169.117 146.93 167.43 150.445 167.43C155.297 167.43 158.391 169.891 158.391 173.477C158.391 174.742 157.969 176.008 157.195 176.992H161.203V179.664Z" fill="white"/>
<path fill-rule="evenodd" clip-rule="evenodd" d="M66.8274 64.9063C66.5133 66.6189 65.7836 68.1863 64.7468 69.5H68.7143C72.2967 69.5 75.4054 71.5287 76.954 74.5H122.674C123.797 72.1351 126.208 70.5 129 70.5H173C175.792 70.5 178.203 72.1351 179.326 74.5H223.046C224.595 71.5287 227.703 69.5 231.286 69.5H235.253C234.216 68.1863 233.487 66.6189 233.173 64.9063C232.729 65.1439 232.261 65.2939 231.908 65.3927C231.133 65.6095 230.135 65.7883 229.056 65.9428C226.859 66.2573 223.875 66.5326 220.613 66.7605C214.074 67.2172 206.169 67.5 200.663 67.5C195.147 67.5 190.099 67.2166 186.381 66.7438C184.543 66.5101 182.912 66.216 181.682 65.8461C181.089 65.6679 180.409 65.4204 179.816 65.052C179.415 64.8024 178 63.8546 178 62C178 60.1454 179.415 59.1976 179.816 58.948C180.409 58.5796 181.089 58.3322 181.682 58.1539C182.912 57.784 184.543 57.4899 186.381 57.2562C190.099 56.7834 195.147 56.5 200.663 56.5C206.169 56.5 214.074 56.7828 220.613 57.2395C223.875 57.4674 226.859 57.7427 229.056 58.0572C230.135 58.2117 231.133 58.3904 231.908 58.6073C232.272 58.7093 232.759 58.8656 233.214 59.1164C233.327 59.1783 233.475 59.2662 233.639 59.3858C235.112 55.3674 238.971 52.5 243.5 52.5C247.986 52.5 251.814 55.3126 253.318 59.2704C253.407 59.1951 253.488 59.132 253.557 59.0811C254.12 58.6663 254.76 58.392 255.295 58.2011C256.402 57.8064 257.837 57.5027 259.408 57.2658C262.597 56.7849 266.899 56.5 271.578 56.5C276.247 56.5 282.936 56.784 288.47 57.2425C291.229 57.471 293.773 57.7487 295.661 58.0692C296.584 58.2259 297.475 58.4129 298.186 58.6491C298.521 58.7603 298.995 58.9395 299.444 59.2326C299.715 59.4091 301 60.2768 301 62C301 63.7232 299.715 64.5909 299.444 64.7674C298.995 65.0605 298.521 65.2397 298.186 65.3509C297.475 65.5871 296.584 65.7741 295.661 65.9308C293.773 66.2513 291.229 66.529 288.47 66.7575C282.936 67.216 276.247 67.5 271.578 67.5C266.899 67.5 262.597 67.2151 259.408 66.7342C257.837 66.4973 256.402 66.1936 255.295 65.7989C254.834 65.6343 254.294 65.4077 253.794 65.0824C253.463 66.7264 252.748 68.2315 251.747 69.5H252.714C257.843 69.5 262 73.6574 262 78.7857C262 81.9416 259.442 84.5 256.286 84.5H254V97.5C254 102.471 249.971 106.5 245 106.5H243C238.367 106.5 234.552 103 234.055 98.5H226V100.5H199.649V100.615C199.67 100.758 199.694 100.931 199.719 101.129C199.791 101.686 199.877 102.462 199.935 103.346C200.039 104.949 200.101 107.535 199.462 109.806C198.255 114.091 196.31 116.473 193.505 119.074C191.483 120.949 189.461 122.694 186.348 123.71L208.919 165.665C209.331 166.431 209.596 167.336 209.467 168.317C209.337 169.311 208.844 170.056 208.343 170.567C207.867 171.052 207.327 171.386 206.923 171.61C206.608 171.784 206.259 171.952 206.006 172.074L206.004 172.074C205.94 172.105 205.882 172.133 205.833 172.157C205.798 172.174 205.758 172.194 205.714 172.216C205.29 172.427 204.448 172.847 203.551 172.964C202.24 173.135 200.986 172.697 199.971 171.652C199.154 170.811 198.483 169.502 197.973 168.474C197.788 168.101 197.61 167.733 197.433 167.368C197.042 166.561 196.659 165.77 196.231 164.985L173.804 123.86L172.656 123.739L172.81 123.163L172 124.566V135.5C172 138.814 169.314 141.5 166 141.5H160V153.27C171.089 157.344 179 167.998 179 180.5C179 196.516 166.016 209.5 150 209.5C133.984 209.5 121 196.516 121 180.5C121 167.998 128.911 157.344 140 153.27V141.5H134C130.686 141.5 128 138.814 128 135.5V125.622L127.314 124.33L127.319 124.349L124.567 124.645L102.05 164.724C101.619 165.493 101.234 166.265 100.839 167.055C100.661 167.413 100.48 167.775 100.293 168.142C99.7775 169.15 99.0962 170.439 98.2678 171.268C97.2411 172.294 95.995 172.706 94.7083 172.543C93.8186 172.431 92.9804 172.025 92.5502 171.817C92.5055 171.796 92.4652 171.776 92.4298 171.759C92.3793 171.735 92.3205 171.708 92.2555 171.678C91.9998 171.558 91.6477 171.394 91.3316 171.224C90.9266 171.007 90.383 170.68 89.9023 170.205C89.3969 169.705 88.885 168.962 88.7486 167.955C88.6137 166.96 88.8925 166.047 89.3133 165.288L112.313 123.788L112.314 123.787C109.958 122.737 108.261 121.231 106.572 119.64C103.789 117.019 101.871 114.627 100.682 110.336C100.053 108.068 100.114 105.481 100.217 103.871C100.274 102.984 100.359 102.205 100.43 101.647C100.455 101.444 100.479 101.268 100.5 101.124V100.5H79C77.223 100.5 75.6264 99.7275 74.5278 98.5H65.9451C65.4476 103 61.6326 106.5 57 106.5H55C50.0294 106.5 46 102.471 46 97.5V84.5H43.7143C40.5584 84.5 38 81.9416 38 78.7857C38 73.6574 42.1574 69.5 47.2857 69.5H48.2532C47.0711 68.0022 46.2883 66.1747 46.0653 64.178C45.6211 64.4486 45.158 64.6446 44.7562 64.7912C43.664 65.1899 42.2533 65.4951 40.715 65.7326C37.5914 66.2149 33.3829 66.5 28.8072 66.5C24.2424 66.5 17.7056 66.2158 12.2964 65.757C9.60057 65.5284 7.11095 65.2503 5.26102 64.9288C4.35741 64.7717 3.47987 64.5834 2.77628 64.3441C2.44485 64.2314 1.97157 64.0487 1.52415 63.7495C1.23781 63.5581 0 62.6899 0 61C0 59.3101 1.23781 58.4419 1.52415 58.2505C1.97157 57.9513 2.44485 57.7686 2.77628 57.6559C3.47987 57.4166 4.35741 57.2283 5.26102 57.0712C7.11095 56.7497 9.60057 56.4716 12.2964 56.243C17.7056 55.7842 24.2424 55.5 28.8072 55.5C33.3829 55.5 37.5914 55.7851 40.715 56.2674C42.2533 56.5049 43.664 56.8101 44.7562 57.2088C45.2848 57.4017 45.9195 57.68 46.4779 58.1013C46.616 58.2055 46.797 58.3553 46.9858 58.5522C48.6602 54.9767 52.2909 52.5 56.5 52.5C61.029 52.5 64.8882 55.3674 66.3614 59.3858C66.5249 59.2662 66.6733 59.1783 66.7856 59.1164C67.2411 58.8656 67.7281 58.7093 68.0921 58.6073C68.8665 58.3904 69.8648 58.2117 70.9443 58.0572C73.1414 57.7427 76.1252 57.4674 79.3874 57.2395C85.9264 56.7828 93.8308 56.5 99.3373 56.5C104.853 56.5 109.901 56.7834 113.619 57.2562C115.457 57.4899 117.088 57.784 118.318 58.1539C118.911 58.3322 119.591 58.5796 120.184 58.948C120.585 59.1976 122 60.1454 122 62C122 63.8546 120.585 64.8024 120.184 65.052C119.591 65.4204 118.911 65.6679 118.318 65.8461C117.088 66.216 115.457 66.5101 113.619 66.7438C109.901 67.2166 104.853 67.5 99.3373 67.5C93.8308 67.5 85.9264 67.2172 79.3874 66.7605C76.1252 66.5326 73.1414 66.2573 70.9443 65.9428C69.8648 65.7883 68.8665 65.6095 68.0921 65.3927C67.7392 65.2939 67.2707 65.1439 66.8274 64.9063ZM150 156.5C136.745 156.5 126 167.245 126 180.5C126 193.755 136.745 204.5 150 204.5C163.255 204.5 174 193.755 174 180.5C174 167.245 163.255 156.5 150 156.5ZM155 151.5V141.5H145V151.5H155ZM166 136.5C166.552 136.5 167 136.052 167 135.5V128.5H133V135.5C133 136.052 133.448 136.5 134 136.5H166ZM175 104.5C175 105.605 174.105 106.5 173 106.5H129C127.895 106.5 127 105.605 127 104.5V77.5C127 76.3954 127.895 75.5 129 75.5H173C174.105 75.5 175 76.3954 175 77.5V104.5ZM119.573 115.094C120.363 117.588 121 120 121 120C121 120 118.54 120.265 117 120C116.549 119.922 116.13 119.829 115.736 119.718C113.417 119.068 111.959 117.845 110 116C107.634 113.772 106.368 112.132 105.5 109C104.718 106.178 105.5 101.5 105.5 101.5V101H114.5C114.5 101 115.5 103 117 105C117.87 106.16 117.563 106.647 117.248 107.145C117.021 107.505 116.79 107.87 117 108.5C117.111 109.414 117.452 110.007 117.824 110.654C118.053 111.053 118.294 111.472 118.5 112C118.86 112.921 119.231 114.015 119.573 115.094ZM129 111.5C127.68 111.5 126.446 111.135 125.392 110.5H124.5L130.871 122.5H168.574L175.11 111.177C174.444 111.387 173.735 111.5 173 111.5H129ZM179 119.383C179 119.383 181.484 119.646 183.038 119.383C183.475 119.309 183.883 119.22 184.267 119.116C186.637 118.474 188.114 117.254 190.106 115.408C192.494 113.193 193.772 111.563 194.649 108.451C195.439 105.646 194.649 100.997 194.649 100.997V100.5H185.562C185.562 100.5 184.553 102.488 183.038 104.475C182.16 105.628 182.471 106.113 182.788 106.607C183.017 106.965 183.25 107.328 183.038 107.954C182.926 108.862 182.582 109.451 182.207 110.095C181.976 110.491 181.732 110.908 181.524 111.432C181.164 112.339 180.793 113.415 180.45 114.477C179.648 116.966 179 119.383 179 119.383ZM119.973 100.5H122V103.678C121.707 103.016 121.341 102.455 121 102C120.62 101.493 120.272 100.975 119.973 100.5ZM72.2857 76.4159C72.737 77.0947 73 77.9095 73 78.7857C73 79.1802 72.6802 79.5 72.2857 79.5H43.7143C43.3198 79.5 43 79.1802 43 78.7857C43 77.9095 43.263 77.0947 43.7143 76.4159C44.1538 75.7548 44.7721 75.2227 45.5 74.8886C46.0436 74.6391 46.6484 74.5 47.2857 74.5H68.7143C69.3516 74.5 69.9564 74.6391 70.5 74.8886C71.2279 75.2227 71.8462 75.7548 72.2857 76.4159ZM73 93.5H67V85.5H73V93.5ZM79 95.5C78.4477 95.5 78 95.0523 78 94.5V79.5H118V95.5H79ZM61 84.5V97.5C61 99.7091 59.2091 101.5 57 101.5H55C52.7909 101.5 51 99.7091 51 97.5V84.5H61ZM56.5 68.5C59.5376 68.5 62 66.0376 62 63C62 59.9624 59.5376 57.5 56.5 57.5C53.4624 57.5 51 59.9624 51 63C51 66.0376 53.4624 68.5 56.5 68.5ZM41.596 62.5337C41.8756 62.4782 42.1404 62.4208 42.3894 62.3617C44.0407 61.9699 45 61.5023 45 61C45 60.4977 44.0407 60.0301 42.3894 59.6383C42.1404 59.5792 41.8756 59.5218 41.596 59.4663C38.6332 58.8783 34.0064 58.5 28.8072 58.5C23.5346 58.5 15.5085 58.8891 9.80858 59.4914C8.28257 59.6527 6.92329 59.8292 5.8282 60.0176C4.07586 60.3192 3 60.6513 3 61C3 61.3487 4.07586 61.6808 5.8282 61.9824C6.92329 62.1708 8.28257 62.3473 9.80857 62.5086C15.5085 63.1109 23.5346 63.5 28.8072 63.5C34.0064 63.5 38.6332 63.1217 41.596 62.5337ZM114.935 63.5224C115.438 63.4392 115.9 63.352 116.319 63.261C118.023 62.8908 119 62.4599 119 62C119 61.5401 118.023 61.1092 116.319 60.739C115.9 60.648 115.438 60.5608 114.935 60.4776C111.341 59.8831 105.691 59.5 99.3373 59.5C92.925 59.5 83.1589 59.8903 76.2355 60.4942C74.1172 60.679 72.265 60.8837 70.8564 61.1035C69.0724 61.3818 68 61.684 68 62C68 62.316 69.0724 62.6182 70.8564 62.8965C72.265 63.1163 74.1172 63.321 76.2355 63.5058C83.1589 64.1097 92.925 64.5 99.3373 64.5C105.691 64.5 111.341 64.1169 114.935 63.5224ZM257.62 63.3495C257.888 63.4123 258.174 63.4732 258.477 63.532C261.51 64.121 266.25 64.5 271.578 64.5C276.978 64.5 285.197 64.1108 291.033 63.5082C292.623 63.344 294.036 63.164 295.167 62.9717C296.924 62.673 298 62.3446 298 62C298 61.6554 296.924 61.327 295.167 61.0283C294.036 60.836 292.623 60.656 291.033 60.4918C285.197 59.8892 276.978 59.5 271.578 59.5C266.25 59.5 261.51 59.879 258.477 60.468C258.174 60.5268 257.888 60.5877 257.62 60.6505C255.962 61.0398 255 61.5029 255 62C255 62.4971 255.962 62.9602 257.62 63.3495ZM296.361 64.3666C296.368 64.3699 296.372 64.3715 296.372 64.3715C296.373 64.3717 296.372 64.3714 296.372 64.3715L296.369 64.3699L296.361 64.3666ZM221 95.5V79.5H181V94.5C181 95.0523 181.448 95.5 182 95.5H221ZM239 84.5H249V97.5C249 99.7091 247.209 101.5 245 101.5H243C240.791 101.5 239 99.7091 239 97.5V84.5ZM256.286 79.5H227.714C227.32 79.5 227 79.1802 227 78.7857C227 77.9095 227.263 77.0947 227.714 76.4159C228.154 75.7548 228.772 75.2227 229.5 74.8886C230.044 74.6391 230.648 74.5 231.286 74.5H252.714C253.352 74.5 253.956 74.6391 254.5 74.8886C255.228 75.2227 255.846 75.7548 256.286 76.4159C256.737 77.0947 257 77.9095 257 78.7857C257 79.1802 256.68 79.5 256.286 79.5ZM185.065 63.5224C184.562 63.4392 184.1 63.352 183.681 63.261C181.977 62.8908 181 62.4599 181 62C181 61.5401 181.977 61.1092 183.681 60.739C184.1 60.648 184.562 60.5608 185.065 60.4776C188.659 59.8831 194.309 59.5 200.663 59.5C207.075 59.5 216.841 59.8903 223.764 60.4942C225.883 60.679 227.735 60.8837 229.144 61.1035C230.928 61.3818 232 61.684 232 62C232 62.316 230.928 62.6182 229.144 62.8965C227.735 63.1163 225.883 63.321 223.764 63.5058C216.841 64.1097 207.075 64.5 200.663 64.5C194.309 64.5 188.659 64.1169 185.065 63.5224ZM243.5 68.5C240.462 68.5 238 66.0376 238 63C238 59.9624 240.462 57.5 243.5 57.5C246.538 57.5 249 59.9624 249 63C249 66.0376 246.538 68.5 243.5 68.5ZM233 85.5H227V93.5H233V85.5ZM115.973 127.5H117.228L97.6912 162.276C97.1969 163.155 96.7195 164.112 96.3026 164.947C96.1383 165.276 95.9835 165.586 95.8407 165.866C95.4475 166.635 95.1628 167.131 94.9657 167.427L94.9413 167.416C94.9068 167.4 94.873 167.384 94.8385 167.368C94.7913 167.346 94.7429 167.323 94.69 167.298L94.5702 167.241C94.464 167.19 94.3692 167.146 94.2823 167.105L94.1741 167.055L94.0763 167.009L115.973 127.5ZM182.44 127L204.177 167.403L204.123 167.43C204.082 167.45 204.041 167.47 203.998 167.491L203.876 167.549C203.801 167.585 203.72 167.624 203.64 167.664L203.52 167.722C203.443 167.76 203.375 167.793 203.306 167.826C203.109 167.518 202.831 167.015 202.452 166.252C202.31 165.965 202.156 165.648 201.993 165.312C201.58 164.46 201.109 163.487 200.62 162.591L181.211 127H182.44Z" fill="white"/>
</svg>
